<?xml version="1.0" encoding="utf-8"?>
<!-- Generator: Adobe Illustrator 23.0.1, SVG Export Plug-In . SVG Version: 6.00 Build 0)  -->
<svg version="1.1" xmlns="http://www.w3.org/2000/svg" xmlns:xlink="http://www.w3.org/1999/xlink" x="0px" y="0px"
	 viewBox="0 0 841.89 298.16" style="enable-background:new 0 0 841.89 298.16;" xml:space="preserve">
<style type="text/css">
	.st0{display:none;}
	.st1{display:inline;fill:#F280A3;}
	.st2{fill:#FFFFFF;}
	.st3{fill:#FFFFFF;stroke:#FFFFFF;stroke-width:0.4916;stroke-miterlimit:10;}
</style>
<g id="Warstwa_2" class="st0">
	<rect x="0.15" y="-148.53" class="st1" width="841.89" height="595.28"/>
</g>
<g id="Warstwa_1">
	<path class="st2" d="M62.98,155.78c3.89,0,7.05,3.17,7.05,7.06v125.95c0,3.89-3.16,7.06-7.05,7.06H9.36
		c-3.89,0-7.06-3.17-7.06-7.06V162.84c0-3.89,3.17-7.06,7.06-7.06H62.98 M62.98,153.47H9.36c-5.17,0-9.37,4.19-9.37,9.37v125.95
		c0,5.17,4.19,9.37,9.37,9.37h53.62c5.17,0,9.36-4.19,9.36-9.37V162.84C72.34,157.67,68.16,153.47,62.98,153.47L62.98,153.47z"/>
	<g>
		<path class="st2" d="M17.69,155.73v1.54c0,2.63,2.12,4.74,4.74,4.74h28.13c2.62,0,4.74-2.11,4.74-4.74v-1.54H17.69z M23.64,159.93
			c-0.58,0-1.05-0.47-1.05-1.05c0-0.58,0.47-1.05,1.05-1.05c0.59,0,1.06,0.47,1.06,1.05C24.7,159.45,24.22,159.93,23.64,159.93z
			 M40.69,159.17h-7.76c-0.16,0-0.29-0.13-0.29-0.29c0-0.16,0.13-0.29,0.29-0.29h7.76c0.16,0,0.29,0.13,0.29,0.29
			C40.98,159.04,40.85,159.17,40.69,159.17z M49.14,160.48c-0.82,0-1.49-0.67-1.49-1.49c0-0.82,0.67-1.47,1.49-1.47
			c0.82,0,1.47,0.66,1.47,1.47C50.61,159.81,49.95,160.48,49.14,160.48z"/>
	</g>
	<path class="st3" d="M89.81,136.89V277.4c0,11.47,9.3,20.77,20.77,20.77H332.9c11.47,0,20.77-9.3,20.77-20.77V136.89
		c0-11.47-9.3-20.77-20.77-20.77H110.58C99.11,116.12,89.81,125.42,89.81,136.89z M101.73,207.14c0-1.43,1.16-2.58,2.58-2.58
		c1.43,0,2.58,1.16,2.58,2.58c0,1.43-1.16,2.58-2.58,2.58C102.88,209.73,101.73,208.57,101.73,207.14z M347.33,207.14
		c0,4.09-3.31,7.4-7.4,7.4c-4.09,0-7.4-3.31-7.4-7.4s3.31-7.4,7.4-7.4C344.02,199.74,347.33,203.05,347.33,207.14z M325.4,124.79
		v164.7H118.08v-164.7H325.4z"/>
	<g>
		<path class="st2" d="M823.38,0H389.65c-10.2,0-18.51,8.3-18.51,18.51v217.65c0,10.2,8.31,18.5,18.51,18.5h433.72
			c10.2,0,18.51-8.3,18.51-18.5V18.51C841.89,8.3,833.58,0,823.38,0z M786.34,251.66c-1.29,0-2.35-1.05-2.35-2.35
			c0-1.29,1.06-2.34,2.35-2.34c1.29,0,2.35,1.05,2.35,2.34C788.69,250.61,787.64,251.66,786.34,251.66z M831.2,236.16
			c0,4.3-3.51,7.81-7.82,7.81H389.65c-4.31,0-7.82-3.51-7.82-7.81V18.51c0-4.31,3.51-7.82,7.82-7.82h433.72
			c4.31,0,7.82,3.51,7.82,7.82V236.16z"/>
		<polygon class="st2" points="606.64,253.77 606.39,253.77 558.65,253.77 572.86,278.72 606.39,278.72 606.64,278.72 
			640.17,278.72 654.38,253.77 		"/>
		<path class="st2" d="M667.97,298.16H545.06c-3.67,0-6.64-2.97-6.64-6.64v-6.17c0-3.67,2.97-6.64,6.64-6.64h122.92
			c3.67,0,6.64,2.97,6.64,6.64v6.17C674.61,295.19,671.64,298.16,667.97,298.16z"/>
	</g>
	<polygon class="st2" points="58.23,194.22 58.23,200.4 36.81,188.04 15.39,200.4 15.39,194.22 36.81,181.85 	"/>
	<polygon class="st2" points="58.22,206.58 58.22,212.77 36.81,200.41 36.8,200.4 15.39,212.76 15.39,206.58 36.8,194.22 
		36.81,194.23 	"/>
	<polygon class="st2" points="58.22,218.95 58.22,218.96 36.81,231.31 15.39,218.95 15.39,218.94 36.8,206.58 36.81,206.59 	"/>
	<polygon class="st2" points="258.48,170.05 258.48,180.54 222.16,159.57 185.84,180.54 185.84,170.05 222.16,149.08 	"/>
	<polygon class="st2" points="258.45,191.02 258.45,201.5 222.16,180.54 222.14,180.54 185.84,201.49 185.84,191 222.14,170.05 
		222.16,170.06 	"/>
	<polygon class="st2" points="258.45,211.98 258.45,212 222.16,232.95 185.84,211.98 185.84,211.97 222.14,191.02 222.16,191.03 	
		"/>
	<polygon class="st2" points="659.74,77.86 659.74,93.23 606.52,62.5 553.29,93.23 553.29,77.86 606.52,47.13 	"/>
	<polygon class="st2" points="659.71,108.59 659.71,123.96 606.52,93.24 606.49,93.23 553.29,123.94 553.29,108.57 606.49,77.86 
		606.52,77.88 	"/>
	<polygon class="st2" points="659.71,139.32 659.71,139.34 606.52,170.05 553.29,139.32 553.29,139.3 606.49,108.59 606.52,108.61 	
		"/>
</g>
</svg>
