<?xml version="1.0" encoding="utf-8"?>
<!-- Generator: Adobe Illustrator 23.0.1, SVG Export Plug-In . SVG Version: 6.00 Build 0)  -->
<svg version="1.1" xmlns="http://www.w3.org/2000/svg" xmlns:xlink="http://www.w3.org/1999/xlink" x="0px" y="0px"
	 viewBox="0 0 595.28 681.17" style="enable-background:new 0 0 595.28 681.17;" xml:space="preserve">
<style type="text/css">
	.st0{display:none;}
	.st1{display:inline;fill:#9AD7D3;}
	.st2{display:inline;fill:#FFFFFF;stroke:#C94545;stroke-width:40.0117;stroke-linecap:square;stroke-miterlimit:10;}
	.st3{display:inline;fill:#FFFFFF;}
	.st4{display:inline;fill:#FFFFFF;stroke:#C94545;stroke-width:40.011;stroke-linecap:square;stroke-miterlimit:10;}
	.st5{display:inline;fill:none;stroke:#FFFFFF;stroke-width:4.4457;stroke-miterlimit:10;}
	.st6{display:inline;fill:none;stroke:#FFFFFF;stroke-width:6.6685;stroke-linecap:round;stroke-miterlimit:10;}
	.st7{display:inline;fill:#FFFFFF;stroke:#C94545;stroke-width:39.9165;stroke-linecap:square;stroke-miterlimit:10;}
	.st8{display:inline;}
	.st9{fill:none;stroke:#FFFFFF;stroke-width:6.6527;stroke-linecap:round;stroke-miterlimit:10;}
	.st10{fill:none;stroke:#FFFFFF;stroke-width:6.6527;stroke-linecap:round;stroke-miterlimit:10;stroke-dasharray:18.0236,18.0236;}
	.st11{display:inline;fill:none;stroke:#FFFFFF;stroke-width:4.4352;stroke-miterlimit:10;}
	.st12{fill:#FFFFFF;}
</style>
<g id="Warstwa_2" class="st0">
	<rect y="-0.01" class="st1" width="595.28" height="680.81"/>
</g>
<g id="learn-choose" class="st0">
	<path class="st2" d="M298.04,20"/>
	<path class="st3" d="M0.41,192.78v101.27h595.26V192.78H0.41z M167.97,259.86c0,2.09-1.11,4-2.91,5.05l-28.5,16.45
		c-1.8,1.04-4.02,1.04-5.82,0l-28.5-16.45c-1.82-1.04-2.93-2.96-2.93-5.05v-32.9c0-2.09,1.11-4,2.93-5.05l28.5-16.45
		c1.8-1.04,4.02-1.04,5.82,0l28.5,16.45c1.8,1.04,2.91,2.96,2.91,5.05V259.86z M482.6,247.37c0,2.78-2.27,5.02-5.05,5.02H203.47
		c-2.8,0-5.05-2.25-5.05-5.02v-7.91c0-2.78,2.25-5.02,5.05-5.02h274.08c2.78,0,5.05,2.25,5.05,5.02V247.37z"/>
	<path class="st3" d="M288.04,678.49L10.41,518.2c-6.19-3.57-10-10.18-10-17.33V180.29c0-7.15,3.81-13.75,10-17.33L288.04,2.68
		c9.57-5.52,21.8-2.25,27.33,7.32l0,0c5.52,9.57,2.25,21.8-7.32,27.33L50.42,186.07c-6.19,3.57-10,10.18-10,17.33v274.38
		c0,7.15,3.81,13.75,10,17.33l237.62,137.19c6.19,3.57,13.82,3.57,20.01,0L545.67,495.1c6.19-3.57,10-10.18,10-17.33V180.29
		c0-11.05,8.96-20.01,20.01-20.01h0c11.05,0,20.01,8.96,20.01,20.01v320.58c0,7.15-3.81,13.75-10,17.33L308.05,678.49
		C301.86,682.07,294.23,682.07,288.04,678.49z"/>
	<path class="st3" d="M99.32,322.3v36.57c0,0.95,0.51,1.82,1.33,2.3l31.67,18.29c0.82,0.47,1.83,0.47,2.65,0l31.67-18.29
		c0.82-0.47,1.33-1.35,1.33-2.3V322.3c0-0.95-0.51-1.82-1.33-2.3l-31.67-18.29c-0.82-0.47-1.83-0.47-2.65,0L100.64,320
		C99.82,320.47,99.32,321.35,99.32,322.3z"/>
	<path class="st3" d="M99.32,419.49v36.52c0,0.96,0.51,1.86,1.35,2.34l31.63,18.26c0.84,0.48,1.86,0.48,2.7,0l31.63-18.26
		c0.84-0.48,1.35-1.37,1.35-2.34v-36.52c0-0.96-0.51-1.86-1.35-2.34l-31.63-18.26c-0.84-0.48-1.86-0.48-2.7,0l-31.63,18.26
		C99.83,417.64,99.32,418.53,99.32,419.49z"/>
	<path class="st3" d="M336.33,349.57H200.69c-1.25,0-2.27-1.01-2.27-2.27v-13.43c0-1.25,1.01-2.27,2.27-2.27h135.65
		c1.25,0,2.27,1.01,2.27,2.27v13.43C338.6,348.55,337.59,349.57,336.33,349.57z"/>
	<path class="st3" d="M419.37,446.74H200.67c-1.24,0-2.25-1.01-2.25-2.25v-13.46c0-1.24,1.01-2.25,2.25-2.25h218.69
		c1.24,0,2.25,1.01,2.25,2.25v13.46C421.62,445.73,420.61,446.74,419.37,446.74z"/>
</g>
<g id="learn-progress" class="st0">
	<path class="st4" d="M297.64,20.01"/>
	<path class="st3" d="M287.64,678.49L10.01,518.2c-6.19-3.57-10-10.18-10-17.33V180.3c0-7.15,3.81-13.75,10-17.33L287.64,2.68
		c9.57-5.52,21.8-2.25,27.33,7.32l0,0c5.52,9.57,2.25,21.8-7.32,27.33L50.02,186.07c-6.19,3.57-10,10.18-10,17.33v274.38
		c0,7.15,3.81,13.75,10,17.33l237.62,137.19c6.19,3.57,13.82,3.57,20.01,0L545.26,495.1c6.19-3.57,10-10.18,10-17.33V180.3
		c0-11.05,8.96-20.01,20.01-20.01h0c11.05,0,20.01,8.96,20.01,20.01v320.58c0,7.15-3.81,13.75-10,17.33L307.64,678.49
		C301.45,682.06,293.82,682.06,287.64,678.49z"/>
	<path class="st3" d="M258.2,317.42v42.72c0,0.95,0.51,1.82,1.33,2.3l37,21.36c0.82,0.47,1.83,0.47,2.65,0l37-21.36
		c0.82-0.47,1.33-1.35,1.33-2.3v-42.72c0-0.95-0.51-1.82-1.33-2.3l-37-21.36c-0.82-0.47-1.83-0.47-2.65,0l-37,21.36
		C258.71,315.6,258.2,316.48,258.2,317.42z"/>
	<path class="st3" d="M258.2,156.93v42.72c0,0.95,0.51,1.82,1.33,2.3l37,21.36c0.82,0.47,1.83,0.47,2.65,0l37-21.36
		c0.82-0.47,1.33-1.35,1.33-2.3v-42.72c0-0.95-0.51-1.82-1.33-2.3l-37-21.36c-0.82-0.47-1.83-0.47-2.65,0l-37,21.36
		C258.71,155.11,258.2,155.98,258.2,156.93z"/>
	<path class="st5" d="M118.2,401.35v42.72c0,0.95,0.51,1.82,1.33,2.3l37,21.36c0.82,0.47,1.83,0.47,2.65,0l37-21.36
		c0.82-0.47,1.33-1.35,1.33-2.3v-42.72c0-0.95-0.51-1.82-1.33-2.3l-37-21.36c-0.82-0.47-1.83-0.47-2.65,0l-37,21.36
		C118.7,399.53,118.2,400.41,118.2,401.35z"/>
	<line class="st6" x1="297.85" y1="280.52" x2="297.85" y2="236.55"/>
	<line class="st6" x1="247.39" y1="370.72" x2="209.72" y2="393.41"/>
	<path class="st3" d="M477.08,398.35v42.72c0,0.95-0.51,1.82-1.33,2.3l-37,21.36c-0.82,0.47-1.83,0.47-2.65,0l-37-21.36
		c-0.82-0.47-1.33-1.35-1.33-2.3v-42.72c0-0.95,0.51-1.82,1.33-2.3l37-21.36c0.82-0.47,1.83-0.47,2.65,0l37,21.36
		C476.57,396.53,477.08,397.41,477.08,398.35z"/>
	<line class="st6" x1="347.89" y1="367.72" x2="385.55" y2="390.41"/>
	<line class="st6" x1="385.55" y1="450.12" x2="347.89" y2="472.81"/>
	<path class="st5" d="M257.99,481.52v42.72c0,0.95,0.51,1.82,1.33,2.3l37,21.36c0.82,0.47,1.83,0.47,2.65,0l37-21.36
		c0.82-0.47,1.33-1.35,1.33-2.3v-42.72c0-0.95-0.51-1.82-1.33-2.3l-37-21.36c-0.82-0.47-1.83-0.47-2.65,0l-37,21.36
		C258.5,479.69,257.99,480.57,257.99,481.52z"/>
</g>
<g id="learn-create" class="st0">
	<path class="st7" d="M298.02,19.96"/>
	<path class="st3" d="M288.04,676.88L11.07,516.97c-6.18-3.57-9.98-10.15-9.98-17.28V179.87c0-7.13,3.8-13.72,9.98-17.28
		L288.04,2.67c9.55-5.51,21.75-2.24,27.26,7.31l0,0c5.51,9.55,2.24,21.75-7.31,27.26L50.99,185.63c-6.18,3.57-9.98,10.15-9.98,17.28
		v273.73c0,7.13,3.8,13.72,9.98,17.28l237.06,136.86c6.18,3.57,13.78,3.57,19.96,0l237.06-136.86c6.18-3.57,9.98-10.15,9.98-17.28
		V179.87c0-11.02,8.94-19.96,19.96-19.96h0c11.02,0,19.96,8.94,19.96,19.96v319.82c0,7.13-3.8,13.72-9.98,17.28L308,676.88
		C301.82,680.44,294.22,680.44,288.04,676.88z"/>
	<path class="st3" d="M343.74,229.36v80.94c0,0.95,0.51,1.82,1.33,2.3l70.1,40.47c0.82,0.47,1.83,0.47,2.65,0l70.1-40.47
		c0.82-0.47,1.33-1.35,1.33-2.3v-80.94c0-0.95-0.51-1.82-1.33-2.3l-70.1-40.47c-0.82-0.47-1.83-0.47-2.65,0l-70.1,40.47
		C344.25,227.54,343.74,228.42,343.74,229.36z"/>
	<g class="st8">
		<g>
			<line class="st9" x1="266.92" y1="366.69" x2="277.67" y2="358.85"/>
			<line class="st10" x1="292.23" y1="348.23" x2="314.07" y2="332.3"/>
			<line class="st9" x1="321.35" y1="326.99" x2="332.1" y2="319.15"/>
		</g>
	</g>
	<path class="st11" d="M106.8,376.44v80.94c0,0.95,0.51,1.82,1.33,2.3l70.1,40.47c0.82,0.47,1.83,0.47,2.65,0l70.1-40.47
		c0.82-0.47,1.33-1.35,1.33-2.3v-80.94c0-0.95-0.51-1.82-1.33-2.3l-70.1-40.47c-0.82-0.47-1.83-0.47-2.65,0l-70.1,40.47
		C107.31,374.62,106.8,375.49,106.8,376.44z"/>
	<path class="st3" d="M318.93,436.5H301.9l8.96,21.83c0.62,1.51-0.09,3.21-1.52,3.85l-7.89,3.44c-1.47,0.64-3.12-0.09-3.75-1.56
		l-8.52-20.73l-13.91,14.31c-1.85,1.91-4.86,0.44-4.86-2.06V386.6c0-2.63,3.2-3.92,4.86-2.06l45.66,46.96
		C322.78,433.29,321.42,436.5,318.93,436.5L318.93,436.5z"/>
</g>
<g id="learn-share">
	<path class="st12" d="M287.63,678.49L10,518.2c-6.19-3.57-10-10.18-10-17.33V180.29c0-7.15,3.81-13.75,10-17.33L287.64,2.68
		c9.57-5.52,21.8-2.25,27.33,7.32l0,0c5.52,9.57,2.25,21.8-7.32,27.33L50.01,186.07c-6.19,3.57-10,10.18-10,17.33v274.38
		c0,7.15,3.81,13.75,10,17.33l237.62,137.19c6.19,3.57,13.82,3.57,20.01,0L545.26,495.1c6.19-3.57,10-10.18,10-17.33V180.29
		c0-11.05,8.96-20.01,20.01-20.01h0c11.05,0,20.01,8.96,20.01,20.01v320.58c0,7.15-3.81,13.75-10,17.33L307.64,678.49
		C301.45,682.07,293.82,682.07,287.63,678.49z"/>
	<path class="st12" d="M239.16,427.82v64.13c0,0.95,0.51,1.82,1.33,2.3l55.54,32.07c0.82,0.47,1.83,0.47,2.65,0l55.54-32.07
		c0.82-0.47,1.33-1.35,1.33-2.3v-64.13c0-0.95-0.51-1.82-1.33-2.3l-55.54-32.07c-0.82-0.47-1.83-0.47-2.65,0l-55.54,32.07
		C239.67,425.99,239.16,426.87,239.16,427.82z"/>
	<path class="st12" d="M159.17,252.99H93.74c-4.93,0-8.92,3.99-8.92,8.92v65.43c0,4.93,3.99,8.92,8.92,8.92h25.51v-28.31h-11.71
		v-13.32h11.71v-10.16c0-11.55,6.88-17.93,17.41-17.93c5.04,0,10.32,0.9,10.32,0.9v11.34h-5.81c-5.73,0-7.51,3.55-7.51,7.2v8.65
		h12.78l-2.04,13.32h-10.74v28.31h25.51c4.93,0,8.92-3.99,8.92-8.92v-65.43C168.09,256.99,164.09,252.99,159.17,252.99z"/>
	<path class="st12" d="M501.53,252.98h-65.43c-4.93,0-8.92,4-8.92,8.92v65.43c0,4.93,4,8.92,8.92,8.92h65.43
		c4.93,0,8.92-4,8.92-8.92V261.9C510.46,256.98,506.46,252.98,501.53,252.98z M492.44,282.5c0.04,0.52,0.04,1.06,0.04,1.58
		c0,16.11-12.27,34.68-34.68,34.68c-6.91,0-13.33-2.01-18.72-5.46c0.99,0.11,1.93,0.15,2.94,0.15c5.71,0,10.95-1.93,15.13-5.2
		c-5.35-0.11-9.85-3.62-11.39-8.46c1.88,0.28,3.57,0.28,5.5-0.22c-5.58-1.13-9.76-6.04-9.76-11.97v-0.15
		c1.62,0.91,3.51,1.47,5.5,1.54c-3.4-2.26-5.43-6.07-5.43-10.15c0-2.27,0.59-4.35,1.65-6.15c6,7.4,15.02,12.23,25.13,12.75
		c-1.73-8.27,4.46-14.98,11.9-14.98c3.51,0,6.67,1.47,8.9,3.85c2.75-0.52,5.39-1.54,7.73-2.94c-0.91,2.83-2.83,5.2-5.35,6.71
		c2.45-0.26,4.83-0.95,7.03-1.9C496.91,278.61,494.82,280.77,492.44,282.5z"/>
	<path class="st12" d="M349.33,181.76c0.82-0.65,2.05-0.04,2.05,0.99v43.16c0,5.59-4.54,10.13-10.13,10.13h-87.8
		c-5.59,0-10.13-4.54-10.13-10.13v-43.14c0-1.06,1.2-1.65,2.05-0.99c4.73,3.67,11,8.34,32.52,23.98
		c4.45,3.25,11.97,10.09,19.46,10.05c7.53,0.06,15.2-6.92,19.48-10.05C338.36,190.12,344.61,185.44,349.33,181.76z M297.35,209.03
		c4.9,0.08,11.95-6.16,15.49-8.74c28.01-20.32,30.14-22.1,36.6-27.16c1.22-0.95,1.94-2.43,1.94-3.99v-4.01
		c0-5.59-4.54-10.13-10.13-10.13h-87.8c-5.59,0-10.13,4.54-10.13,10.13v4.01c0,1.56,0.72,3.02,1.94,3.99
		c6.46,5.04,8.59,6.84,36.6,27.16C285.41,202.87,292.46,209.12,297.35,209.03L297.35,209.03z"/>
	<path class="st12" d="M191.93,370.45l36.86,36.86c0.81,0.81,2.12,0.81,2.93,0l6.84-6.84c0.81-0.81,0.81-2.12,0-2.93l-36.86-36.86
		l5.62-5.62c2.61-2.61,0.76-7.07-2.93-7.07h-21.01c-2.29,0-4.14,1.85-4.14,4.14v21.01c0,3.69,4.46,5.54,7.07,2.93L191.93,370.45z"/>
	<path class="st12" d="M290.45,303.23v52.12c0,1.14,0.93,2.07,2.07,2.07h9.67c1.14,0,2.07-0.93,2.07-2.07v-52.12h7.95
		c3.69,0,5.54-4.46,2.93-7.07l-14.86-14.86c-1.62-1.62-4.24-1.62-5.86,0l-14.86,14.86c-2.61,2.61-0.76,7.07,2.93,7.07H290.45z"/>
	<path class="st12" d="M393.01,360.68l-36.86,36.86c-0.81,0.81-0.81,2.12,0,2.93l6.84,6.84c0.81,0.81,2.12,0.81,2.93,0l36.86-36.86
		l5.62,5.62c2.61,2.61,7.07,0.76,7.07-2.93v-21.01c0-2.29-1.85-4.14-4.14-4.14h-21.01c-3.69,0-5.54,4.46-2.93,7.07L393.01,360.68z"
		/>
</g>
</svg>
