<?xml version="1.0" encoding="UTF-8" standalone="no"?>
<!-- Generator: Adobe Illustrator 23.0.1, SVG Export Plug-In . SVG Version: 6.00 Build 0)  -->

<svg
   xmlns:dc="http://purl.org/dc/elements/1.1/"
   xmlns:cc="http://creativecommons.org/ns#"
   xmlns:rdf="http://www.w3.org/1999/02/22-rdf-syntax-ns#"
   xmlns:svg="http://www.w3.org/2000/svg"
   xmlns="http://www.w3.org/2000/svg"
   xmlns:sodipodi="http://sodipodi.sourceforge.net/DTD/sodipodi-0.dtd"
   xmlns:inkscape="http://www.inkscape.org/namespaces/inkscape"
   version="1.1"
   id="Warstwa_1"
   focusable="false"
   x="0px"
   y="0px"
   viewBox="0 0 448 512"
   style="enable-background:new 0 0 448 512;"
   xml:space="preserve"
   sodipodi:docname="course-icon.svg"
   inkscape:version="0.92.4 (5da689c313, 2019-01-14)"><metadata
   id="metadata3733"><rdf:RDF><cc:Work
       rdf:about=""><dc:format>image/svg+xml</dc:format><dc:type
         rdf:resource="http://purl.org/dc/dcmitype/StillImage" /></cc:Work></rdf:RDF></metadata><defs
   id="defs3731" /><sodipodi:namedview
   pagecolor="#ffffff"
   bordercolor="#666666"
   borderopacity="1"
   objecttolerance="10"
   gridtolerance="10"
   guidetolerance="10"
   inkscape:pageopacity="0"
   inkscape:pageshadow="2"
   inkscape:window-width="1920"
   inkscape:window-height="1017"
   id="namedview3729"
   showgrid="false"
   inkscape:zoom="1.65625"
   inkscape:cx="224"
   inkscape:cy="256"
   inkscape:window-x="-8"
   inkscape:window-y="-8"
   inkscape:window-maximized="1"
   inkscape:current-layer="Warstwa_1" />
<style
   type="text/css"
   id="style3724">
	.st0{fill:#1FB24B;}
</style>
<path
   class="st0"
   d="M430.65,292.65l-90.46-52.23c-9.37-5.41-20.91-5.41-30.28,0l-10.24,5.91c-6.41,3.7-14.59,1.76-18.65-4.43  l-30.62-46.63c-4.4-6.71-2.26-15.74,4.69-19.75l12.67-7.31c7.04-4.06,11.37-11.57,11.37-19.7V72.89c0-8.13-4.34-15.63-11.37-19.7  l-65.49-37.81c-7.04-4.06-15.71-4.06-22.74,0l-65.49,37.81c-7.04,4.06-11.37,11.57-11.37,19.7v75.62c0,8.13,4.34,15.63,11.37,19.7  l0,0c7.46,4.31,9.73,14.02,4.96,21.19l-36.29,54.54c-4.88,7.34-14.62,9.62-22.25,5.21l0,0c-1.89-1.09-4.01-1.64-6.12-1.64  s-4.22,0.55-6.12,1.64L6.12,273.45C2.33,275.64,0,279.67,0,284.05v48.62c0,4.37,2.33,8.41,6.12,10.6l42.11,24.31  c1.89,1.09,4.01,1.64,6.12,1.64s4.22-0.55,6.12-1.64l42.11-24.31c3.79-2.19,6.12-6.22,6.12-10.6v-48.62c0-4.37-2.33-8.41-6.12-10.6  h0c-8.55-4.94-11.16-16.07-5.69-24.29l32.76-49.24c6.14-9.23,18.4-12.1,28-6.56l21.89,12.64c7.04,4.06,15.71,4.06,22.74,0  l15.85-9.15c6.41-3.7,14.59-1.76,18.65,4.43l30.62,46.63c4.4,6.71,2.26,15.74-4.69,19.75l-43.25,24.97  c-9.37,5.41-15.14,15.41-15.14,26.23v104.45c0,10.82,5.77,20.82,15.14,26.23l90.46,52.23c9.37,5.41,20.91,5.41,30.28,0l90.46-52.23  c9.37-5.41,15.14-15.41,15.14-26.23V318.88C445.8,308.06,440.02,298.06,430.65,292.65z M97.68,284.05v48.62  c0,0.44-0.24,0.85-0.62,1.07l-42.11,24.31c-0.19,0.11-0.4,0.17-0.62,0.17s-0.43-0.06-0.62-0.17l-42.11-24.31  c-0.38-0.22-0.62-0.63-0.62-1.07v-48.62c0-0.44,0.24-0.85,0.62-1.07l42.11-24.31c0.19-0.11,0.4-0.17,0.62-0.17  c0.22,0,0.43,0.06,0.62,0.17l42.11,24.31C97.44,283.2,97.68,283.6,97.68,284.05z"
   id="path3726"
   style="fill:#000000" />
</svg>