<svg id="Warstwa_1" data-name="Warstwa 1" xmlns="http://www.w3.org/2000/svg" viewBox="0 0 462.41 412.71"><defs><style>.cls-1{fill:#fff;}</style></defs><title>drag-drop-icon</title><path class="cls-1" d="M213.47,137.57v9.09H226a27.31,27.31,0,0,1,11.52-2.52,31.39,31.39,0,0,1,3.21.18v-6.75Zm-54.55,0v9.09h27.27v-9.09Zm-54.56,0v9.09h27.28v-9.09Zm-54.56,0v9.09H77.08v-9.09Zm-27,2A34.47,34.47,0,0,0,5.48,153.32s0,0,0,.05,0,0,0,0,0,0,0,0v0a0,0,0,0,0,0,0s0,0,0,0v0l0,0v0h0v0s0,0,0,0v0s0,0,0,0v0h0v0a0,0,0,0,0,0,0s0,0,0,0v0s0,0,0,0v0h0v0a33.15,33.15,0,0,0-2,3.71l8.25,3.82a25.46,25.46,0,0,1,14.41-13.21ZM0,184.35v27.28H9.09V184.35Zm0,54.56v27.28H9.09V238.91Zm0,54.55v27.28H9.09V293.46ZM0,348V375.3H9.09V348Zm15.12,46.69-6.94,5.91a34.47,34.47,0,0,0,17.39,11l.05,0h0l.05,0h0a0,0,0,0,0,0,0h0s0,0,0,0h.09s0,0,0,0h0s0,0,0,0h.09s0,0,0,0h.05s0,0,0,0h.09s0,0,0,0h.07a0,0,0,0,0,0,0h.07l0,0h.1v0h0l.32.07h0s0,0,0,0h.09a0,0,0,0,0,0,0h.07s0,0,0,0h.09a0,0,0,0,1,0,0h.09l0,0h.07l0,0a38.38,38.38,0,0,0,4.32.6l.66-9.07A25,25,0,0,1,15.12,394.71Zm44,8.91v9.09H86.43v-9.09Zm54.55,0v9.09H141v-9.09Zm54.56,0v9.09h27.28v-9.09Zm79.29-.91a25.06,25.06,0,0,1-6.8.91H222.81v9.09H242a0,0,0,0,0,0,0h.5s0,0,0,0h.39l0,0h.32l0,0h.28l0,0h.25v0h.23s0,0,0,0h.23v0h.22v0h.18l0,0h.16s0,0,0,0h.16l.07,0h.11a0,0,0,0,0,0,0h.16l0,0h.16v0h.14l0,0h.12a.08.08,0,0,1,.07,0h0a.07.07,0,0,0,.07,0h.11s0,0,0,0h.09a.08.08,0,0,1,.07,0h.09l0,0h.11a.08.08,0,0,1,.07,0h0l.16,0h0a.15.15,0,0,0,.09,0h.11a29.3,29.3,0,0,0,2.87-.69Zm18.5-34.25v9.86a25.37,25.37,0,0,1-3.16,12.28l8,4.41c.54-1,1.06-2.07,1.52-3.14,0,0,0-.05,0-.09v0s0-.06,0-.09a.35.35,0,0,0,.05-.13.79.79,0,0,0,0-.09s0,0,0,0,0-.06,0-.09a0,0,0,0,1,0,0v0a.12.12,0,0,0,0,0v0a0,0,0,0,1,0,0v0s0,0,0,0v0s0,0,0,0a.11.11,0,0,1,0-.07v0l0,0v0a.12.12,0,0,0,0-.05v0a0,0,0,0,1,0,0v0a0,0,0,0,1,0,0v-.05s0,0,0,0a.11.11,0,0,1,0-.07v0a0,0,0,0,1,0,0v0s0,0,0-.05v-.05l0,0v0s0,0,0,0v0a.08.08,0,0,0,0-.07l0,0v-.05a0,0,0,0,0,0,0v0a0,0,0,0,1,0,0v-.05s0,0,0,0v0h0V390a0,0,0,0,0,0,0v0s0,0,0,0v-.05l0,0v-.05h0v-.07h0v-.06s0,0,0,0v0s0,0,0,0v0s0,0,0,0v0a0,0,0,0,1,0,0v0l0,0v0s0,0,0,0a.08.08,0,0,1,0-.07v0a0,0,0,0,0,0,0v0l0,0v0s0,0,0-.05v0l0,0v0l0,0v-.05s0,0,0,0v-.07h0v-.07a0,0,0,0,0,0,0v0a0,0,0,0,0,0,0v0l0,0v0l0,0v-.06s0,0,0,0v0s0,0,0,0v-.05s0,0,0,0v0a0,0,0,0,1,0,0v0s0,0,0,0v-.05l0,0V388s0,0,0,0v0s0,0,0-.05v-.07s0,0,0,0v-.05s0,0,0,0v0s0,0,0,0v-.06l0,0v-.07h0v-.06a0,0,0,0,1,0,0v-.06l0,0v-.07s0,0,0,0v-.07h0v-.06l0,0V387h0v-.09a0,0,0,0,0,0,0v-.07s0,0,0,0v-.07h0v-.09h0v-.09a0,0,0,0,0,0,0v-.07h0v-.09s0,0,0-.05v0s0,0,0,0v-.09h0v-.09a0,0,0,0,0,0,0V386h0v-.09s0,0,0,0v-.06a0,0,0,0,1,0,0v-.09a0,0,0,0,0,0,0v-.09h0v-.09l0,0v-.1h0v-.11h0v-.11s0,0,0,0V385s0,0,0,0v-.09a0,0,0,0,0,0,0v-.09l0,0v-.09s0,0,0,0v-.09l0,0v-.11h0v-.11l0,0v-.11l0,0V384l0,0v-.11l0,0v-.11s0,0,0,0v-.14l0,0v-.14s0,0,0,0v-.14h0v-.13s0,0,0,0v-.15h0v-.19h0v-.18h0v-.16s0,0,0,0v-.18a0,0,0,0,1,0,0V382s0,0,0,0v-.23h0v-.22s0,0,0,0v-.22s0,0,0,0V381a0,0,0,0,1,0,0v-.3s0,0,0,0v-.36s0,0,0,0v-.44l0,0v-.68h0V368.46Zm0-44.49v17.21h6.64Zm5.84-10.07,3.25,8.39V313.9Zm-5.84-54.56v27.28h9.09V259.34Zm0-54.55v27.28h9.09V204.79Zm9.07-33.67v-.61s0,0,0,0V170s0,0,0,0v-.32s0,0,0,0v-.29h0v-.28s0,0,0,0v-.23s0,0,0,0v-.21l0,0v-.2h0v-.21l0,0v-.18a0,0,0,0,1,0,0v-.13s0,0,0,0v-.16l0,0v-.16h0v-.16l0,0V167h0v-.14l0,0v-.13l0,0v-.09s0,0,0,0v-.14a0,0,0,0,1,0,0v-.09s0,0,0-.05v-.09l0,0-10.59-4.07a25,25,0,0,1,2,9.86v5.55h9.09v-6.34S275.12,171.15,275.12,171.12Zm-6.62-19.46-2.15,1.6,4.25,1.63A36.45,36.45,0,0,0,268.5,151.66Zm-25.8-14a.07.07,0,0,0-.06,0h-.41a0,0,0,0,0,0,0h-.68l0,0h-.75v6.75a26,26,0,0,1,3.95.78l1.05-7.17C244.75,137.8,243.73,137.68,242.7,137.64Z"/><path class="cls-1" d="M274.67,166.21l138,53.26v21.28a34.38,34.38,0,0,1-34.39,34.39H256.93l-37.05-96a19,19,0,0,1,24.6-24.6l19.57,7.55,10.59,4.07,0,0Z"/><path class="cls-1" d="M412.71,34.39V209.72L270.6,154.89l-4.25-1.63-18.6-7.19a25.7,25.7,0,0,0-3.05-1,26,26,0,0,0-3.95-.78,31.39,31.39,0,0,0-3.21-.18A27.31,27.31,0,0,0,226,146.66a28.38,28.38,0,0,0-11.64,9.8,27.74,27.74,0,0,0-3,26l35.81,92.72H172a34.38,34.38,0,0,1-34.39-34.39V34.39A34.38,34.38,0,0,1,172,0H378.32A34.38,34.38,0,0,1,412.71,34.39Z"/><path class="cls-1" d="M451.63,268.85l-48.42,23.32a97.78,97.78,0,0,0-45.71,45.69L334.2,386.3a20.37,20.37,0,0,1-1.46,2.55,19.12,19.12,0,0,1-2.68,3.16,18.32,18.32,0,0,1-2.07,1.68,19.43,19.43,0,0,1-5.86,2.73,21.27,21.27,0,0,1-2.5.5,19.83,19.83,0,0,1-2.55.15A18.94,18.94,0,0,1,305,392.78a13,13,0,0,1-1.64-1.5,12.47,12.47,0,0,1-1-1.09,16,16,0,0,1-1.7-2.46,18.59,18.59,0,0,1-1.36-2.84l-24.17-62.6-3.25-8.39-15-38.76-37.05-96a19,19,0,0,1,24.6-24.6l19.57,7.55,10.59,4.07,0,0v0l138,53.26L450.24,234C465.77,240,466.66,261.62,451.63,268.85Z"/></svg>