<svg id="Warstwa_1" data-name="Warstwa 1" xmlns="http://www.w3.org/2000/svg" viewBox="0 0 139.66 135.11"><defs><style>.cls-1{isolation:isolate;}.cls-2{fill:#fff;}</style></defs><title>levelapp-logo-full</title><g class="cls-1"><path class="cls-2" d="M42.13,147.66a15.16,15.16,0,0,0-.13,1.68c0,.71-.07,1.39-.12,1.61-.07.43-.25.57-.86.5-1-.07-5.62-.29-7.49-.29-1,0-7,.11-7.26.11s-.46-.11-.43-.61.25-8.51.25-11.3-.32-11.49-.37-11.85c0-.55,0-.64.43-.64.25,0,1.57.12,1.93.12s1.8-.07,2-.12c.39,0,.43.12.39.55s-.25,8.42-.25,10.92-.07,5.38,0,8.69c0,.5,0,.68.29.68,1.18,0,3.79-.05,5.52-.07a50.2,50.2,0,0,0,5.77-.46C42.08,147.09,42.15,147.28,42.13,147.66Z" transform="translate(-25.71 -21.61)"/><path class="cls-2" d="M58.83,141.74a1.67,1.67,0,0,1-1.11,1.88c-.36.12-8.85.89-10.75,1,.32,2.31,3,3.74,4.88,3.63a7.66,7.66,0,0,0,4.85-1.8c.37-.25.57-.61.71-.43s.55,1,.68,1.25.5,1,.56,1.07,0,.36-.25.56a8.51,8.51,0,0,1-6.56,2.7c-6,0-8.85-4.17-8.85-8.85,0-5,3.75-9,8.24-9C54.93,133.82,58.49,136.38,58.83,141.74Zm-4.13-1.07a3.84,3.84,0,0,0-4-3.5c-2.29.14-3.49,2.07-3.81,3.93-.11.56.05.64.93.62s4.13-.25,5.86-.5C54.36,141.1,54.77,141.13,54.7,140.67Z" transform="translate(-25.71 -21.61)"/><path class="cls-2" d="M76.31,139.31a19.16,19.16,0,0,1-.14,3.29,36.49,36.49,0,0,1-2.92,4.74C72,149,71.3,150,70.64,150.9a1.08,1.08,0,0,1-.43.37,9.2,9.2,0,0,1-1.45.11,11.31,11.31,0,0,1-1.55-.11.76.76,0,0,1-.45-.37c-.39-.45-1.64-2.11-2.93-3.85a39.67,39.67,0,0,1-2.74-4.21,12.43,12.43,0,0,1-.43-3.38c0-1.36.07-3.7.07-4.29,0-.36.13-.38.38-.38s1.43.07,1.7.07l1.7,0c.3,0,.32.12.32.37-.07,1.11-.13,2.45-.13,3.29s.11,2.2.18,2.92c.13,1.36,3.56,5.82,3.85,5.82s3.32-4.38,3.5-5.63a25,25,0,0,0,.13-3c0-.68-.2-2.87-.2-3.3s0-.43.25-.43l1.68,0c.32,0,1.31-.07,1.54-.07s.37,0,.43.29A35.31,35.31,0,0,1,76.31,139.31Z" transform="translate(-25.71 -21.61)"/><path class="cls-2" d="M94.08,141.74A1.68,1.68,0,0,1,93,143.62c-.37.12-8.86.89-10.76,1,.32,2.31,3,3.74,4.88,3.63A7.72,7.72,0,0,0,92,146.5c.36-.25.56-.61.7-.43s.55,1,.68,1.25.5,1,.57,1.07-.05.36-.25.56a8.53,8.53,0,0,1-6.57,2.7c-6,0-8.85-4.17-8.85-8.85,0-5,3.75-9,8.24-9C90.15,133.82,93.72,136.38,94.08,141.74Zm-4.15-1.07a3.85,3.85,0,0,0-4-3.5c-2.29.14-3.49,2.07-3.81,3.93-.11.56,0,.64.93.62s4.14-.25,5.86-.5C89.59,141.1,90,141.13,89.93,140.67Z" transform="translate(-25.71 -21.61)"/><path class="cls-2" d="M100.91,127.33c-.12,1.29-.39,9.69-.39,11.12s.14,11.73.14,12.41c0,.32-.07.39-.3.39s-1.18-.07-1.68-.07-1.43,0-1.63.07-.32-.05-.32-.39.07-11,.07-12.41-.33-9.94-.37-11.12c0-.39,0-.5.37-.5s1.2.11,1.88.11,1.57-.11,1.93-.11S101,127,100.91,127.33Z" transform="translate(-25.71 -21.61)"/><path class="cls-2" d="M125.87,150.79c.18.43,0,.46-.36.46-.57,0-1.45-.12-1.93-.12s-1.68.12-2,.12-.45-.3-.63-.82c-1.36-4.17-1.45-4.44-2.14-4.49-1.06-.05-8.42-.05-9.37,0-.62,0-.8.88-1.82,4.29-.29.93-.32,1-.61,1-.5,0-1.43,0-2,0-.68,0-1.5,0-2,0s-.39-.29-.12-1,3.36-9.19,4.29-11.67c1-2.63,4.43-10.92,4.61-11.48s.11-.71.68-.64a11.3,11.3,0,0,0,1.7.14,8.93,8.93,0,0,0,1.7-.18c.29-.07.36,0,.61.63s2.57,6.49,4.14,10.49C121.22,138.93,125.69,150.36,125.87,150.79Zm-8.53-10.93c-2.36-6.25-2.7-7-3.24-8.06-.57,1.45-2.75,6.95-3.18,8.17-.75,2.14-.88,2.18,3.18,2.18S118.25,142.19,117.34,139.86Z" transform="translate(-25.71 -21.61)"/><path class="cls-2" d="M145.26,142.87a9.26,9.26,0,0,1-2.68,6.61,7.72,7.72,0,0,1-5.36,2.24,6,6,0,0,1-4.93-2.49c-.11-.14-.45-.43-.45.07-.05.81-.05,6.37-.05,6.85s-.07.57-.38.57-1.14-.07-1.61-.07-1.05,0-1.57,0c-.29,0-.38-.14-.38-.46s.07-7.76.07-13.36a61.1,61.1,0,0,0-.55-7.68c0-.29-.07-.45.14-.54s1.54-.12,1.93-.18a16.45,16.45,0,0,1,1.93-.32.27.27,0,0,1,.3.25c.07.75.13,1.56.17,2.18,0,.38.12.32.39,0a6.39,6.39,0,0,1,4.93-2.49,7.65,7.65,0,0,1,5.42,2.24A9.66,9.66,0,0,1,145.26,142.87Zm-4.07-.06c0-2.86-2.06-5.36-4.74-5.36-2.45,0-4.5,2.32-4.5,5.38,0,2.88,1.89,5.38,4.64,5.38C138.88,148.23,141.19,145.94,141.19,142.81Z" transform="translate(-25.71 -21.61)"/><path class="cls-2" d="M165.37,142.87a9.26,9.26,0,0,1-2.68,6.61,7.72,7.72,0,0,1-5.35,2.24,6,6,0,0,1-4.93-2.49c-.12-.14-.46-.43-.46.07,0,.81,0,6.37,0,6.85s-.07.57-.39.57-1.13-.07-1.61-.07-1,0-1.56,0c-.3,0-.39-.14-.39-.46s.08-7.76.08-13.36a61.1,61.1,0,0,0-.55-7.68c-.05-.29-.07-.45.13-.54s1.55-.12,1.94-.18a16.45,16.45,0,0,1,1.93-.32.26.26,0,0,1,.29.25c.07.75.14,1.56.18,2.18,0,.38.12.32.39,0a6.39,6.39,0,0,1,4.92-2.49,7.67,7.67,0,0,1,5.43,2.24A9.74,9.74,0,0,1,165.37,142.87Zm-4.07-.06c0-2.86-2.07-5.36-4.74-5.36-2.45,0-4.5,2.32-4.5,5.38,0,2.88,1.89,5.38,4.63,5.38C159,148.23,161.3,145.94,161.3,142.81Z" transform="translate(-25.71 -21.61)"/></g><polygon class="cls-2" points="69.37 44.65 30.74 66.95 30.74 66.95 69.39 89.28 108.02 66.97 108.02 66.95 69.39 44.65 69.37 44.65"/><polygon class="cls-2" points="69.39 0 30.74 22.31 30.74 33.48 69.39 11.17 108.04 33.48 108.04 22.31 69.39 0"/><polygon class="cls-2" points="69.37 22.31 30.74 44.62 30.74 55.79 69.37 33.48 69.39 33.5 108.02 55.79 108.02 44.65 69.39 22.34 69.37 22.31"/></svg>