<?xml version="1.0" encoding="utf-8"?>
<!-- Generator: Adobe Illustrator 23.0.3, SVG Export Plug-In . SVG Version: 6.00 Build 0)  -->
<svg version="1.1" 
	id="Warstwa_1" 
	xmlns="http://www.w3.org/2000/svg" 
	xmlns:xlink="http://www.w3.org/1999/xlink" 
	x="0px" 
	y="0px"
	width="67.407623mm"
    height="62.908276mm"
	viewBox="0 0 2978.8 2106.2" 
	style="enable-background:new 0 0 2978.8 2106.2;" 
	xml:space="preserve">
<style type="text/css">
	.st0{display:none;}
	.st1{display:inline;fill:#1FB24B;}
	.st2{font-family:'BerlinSans-Roman';}
	.st3{font-size:124.6816px;}
	.st4{display:inline;}
	.st5{font-size:54.0859px;}
	.st6{fill:#1FB24B;}
	.st7{fill:#184C25;}
	.st8{fill:#2A9445;}
	.st9{fill:#3E7136;}
	.st10{fill:#63BC46;}
	.st11{fill:#1A723A;}
	.st12{font-size:72.1258px;}
	.st13{enable-background:new    ;}
</style>
<g class="st0">
	<text transform="matrix(1 0 0 1 1364.5231 1091.8932)" class="st1 st2 st3">LevelApp</text>
	<polygon class="st1" points="1227.2,1053.1 1120.4,1114.8 1120.4,1114.8 1227.2,1176.4 1333.9,1114.8 1333.9,1114.8 1227.2,1053.2 
			"/>
	<polygon class="st1" points="1227.2,929.9 1120.4,991.5 1120.4,1022.3 1227.2,960.7 1334,1022.3 1334,991.5 	"/>
	<polygon class="st1" points="1227.2,991.5 1120.4,1053.1 1120.4,1083.9 1227.2,1022.3 1227.2,1022.4 1333.9,1084 1333.9,1053.1 	
		"/>
</g>
<g id="Warstwa_4" class="st0">
	<text transform="matrix(1 0 0 1 1314.4114 923.5452)" class="st4 st2 st5">LevelApp</text>
	<g class="st4">
		<polygon class="st6" points="1301.1,906.8 1301.1,920.1 1254.8,893.4 1254.8,880 		"/>
		<polygon class="st7" points="1254.8,906.8 1254.8,960.2 1208.5,933.5 1208.5,933.5 		"/>
		<polygon class="st8" points="1301.1,933.5 1301.1,933.5 1254.8,960.2 1254.8,906.8 		"/>
		<polygon class="st9" points="1254.8,853.3 1254.8,866.6 1208.5,893.4 1208.5,880 		"/>
		<polygon class="st10" points="1301.1,880 1301.1,893.4 1254.8,866.6 1254.8,853.3 		"/>
		<polygon class="st11" points="1254.8,880 1254.8,893.4 1254.8,893.4 1208.5,920.1 1208.5,906.7 		"/>
		<polygon class="st6" points="1301.1,906.8 1301.1,920.1 1254.8,893.4 1254.8,880 		"/>
	</g>
	<text transform="matrix(1 0 0 1 1420.307 1247.8859)" class="st4 st2 st12">LevelApp</text>
	<g class="st4">
		<polygon class="st6" points="1641.3,1074.6 1641.3,1096.9 1564.3,1052.4 1564.3,1030.2 		"/>
		<polygon class="st7" points="1564.3,1074.6 1564.3,1163.6 1487.3,1119.1 1487.3,1119.1 		"/>
		<polygon class="st8" points="1641.3,1119.1 1641.3,1119.1 1564.3,1163.6 1564.3,1074.6 		"/>
		<polygon class="st9" points="1564.3,985.7 1564.3,1007.9 1487.3,1052.4 1487.3,1030.1 		"/>
		<polygon class="st10" points="1641.3,1030.1 1641.3,1052.4 1564.3,1007.9 1564.3,985.7 		"/>
		<polygon class="st11" points="1564.3,1030.2 1564.3,1052.4 1564.3,1052.4 1487.3,1096.8 1487.3,1074.6 1564.3,1030.1 		"/>
		<polygon class="st6" points="1641.3,1074.6 1641.3,1096.9 1564.3,1052.4 1564.3,1030.2 		"/>
	</g>
</g>
<g id="Warstwa_3" class="st0">
	<path class="st1" d="M1309.3,878.7h-115.4c-3.9,0-7,3.2-7,7v115.4c0,3.9,3.2,7,7,7h115.4c3.9,0,7-3.2,7-7V885.8
		C1316.3,881.9,1313.1,878.7,1309.3,878.7z M1289.6,965.4l-38,21.9l-38-22l0,0l38-21.9l0,0L1289.6,965.4L1289.6,965.4L1289.6,965.4z
		 M1289.6,954.4l-38-21.9l0,0l-38,21.9v-11l38-21.9l0,0l38,21.9V954.4z M1289.6,932.5l-38-22l-38,22v-11l38-22l38,22V932.5
		L1289.6,932.5z"/>
</g>
<g class="st0">
	<g class="st4">
		<g>
			<path d="M1206.2,975L1206.2,975l98.8,57.1l0,0l-98.8,57l-98.8-57l0,0L1206.2,975 M1206.2,972.7l-0.9,0.5l-98.8,57l-1,0.6v1.1v1.1
				l1,0.6l98.8,57l1,0.6l1-0.6l98.8-57l1-0.6v-1.1v-1.1l-1-0.6l-98.8-57h-0.1h-0.1h-0.1L1206.2,972.7L1206.2,972.7z"/>
		</g>
		<g>
			<path d="M1206.3,860.9l98.8,57.1v28.5l-98.8-57.1l-98.8,57.1V918L1206.3,860.9 M1206.3,858.6l-1,0.6l-98.8,57.1l-1,0.6v1.1v28.5
				v3.5l3-1.7l97.8-56.5l97.8,56.5l3,1.7v-3.5V918v-1.1l-1-0.6l-98.8-57.1L1206.3,858.6L1206.3,858.6z"/>
		</g>
		<g>
			<path d="M1206.2,917.9L1206.2,917.9L1305,975v28.5l-98.8-57h-0.1l-98.8,57V975L1206.2,917.9 M1206.2,915.6l-0.9,0.5l-98.8,57
				l-1,0.6v1.1v28.7v3.5l3-1.7l97.8-56.4l97.8,56.5l3,1.7v-3.6V975v-1.1l-1-0.6l-98.8-57h-0.1h-0.1h-0.1L1206.2,915.6L1206.2,915.6z
				"/>
		</g>
	</g>
</g>
<g class="st13">
	<path class="st6" d="M656.8,1965.1c-0.7,3.2-1.8,14.9-2.1,26.2c-0.7,11-1.1,21.6-1.8,25.1c-1.1,6.7-3.9,8.8-13.4,7.8
		c-14.9-1.1-87.7-4.6-116.8-4.6c-15.6,0-108.3,1.8-113.2,1.8c-5.7,0-7.1-1.8-6.7-9.6c0.7-5.7,3.9-132.7,3.9-176.2
		c0-43.5-5-179-5.7-184.7c-0.7-8.5,0-9.9,6.7-9.9c3.9,0.7,24.4,1.8,30.1,1.8c5.7,0,28-1.1,30.4-1.8c6,0,6.7,1.8,6,8.5
		c-0.7,5-3.9,131.3-3.9,170.2c0,38.2-1.1,83.9,0,135.5c0,7.8,0.7,10.6,4.6,10.6c18.4,0,59.1-0.7,86-1.1c33.3-1.1,72.2-3.9,89.9-7.1
		C656,1956.2,657.1,1959.1,656.8,1965.1z"/>
	<path class="st6" d="M917.2,1872.7c0.7,12.4-3.9,26.2-17.3,29.4c-5.7,1.8-138,13.8-167.7,16.3c5,36.1,46.7,58.4,76.1,56.6
		c36.8-2.1,52.4-11,75.7-28c5.7-3.9,8.8-9.6,11-6.7c1.1,2.1,8.5,15.6,10.6,19.5c2.8,4.6,7.8,14.9,8.8,16.6c1.8,2.1-0.7,5.7-3.9,8.8
		c-20.2,20.2-48.8,42.1-102.3,42.1c-93.8,0-138-65.1-138-138c0-77.8,58.4-140.5,128.4-140.5C856.3,1749.3,911.9,1789.2,917.2,1872.7
		z M852.8,1856.1c-5-31.8-29-56.6-61.6-54.5c-35.7,2.1-54.5,32.2-59.4,61.2c-1.8,8.8,0.7,9.9,14.5,9.6c14.9-0.7,64.4-3.9,91.3-7.8
		C847.5,1862.8,853.8,1863.2,852.8,1856.1z"/>
	<path class="st6" d="M1189.6,1834.9c0,21.2,0,44.9-2.1,51.3c-1.8,3.9-24.1,45.6-45.6,73.9c-18.8,25.5-30.4,41.7-40.7,55.5
		c-2.1,3.2-4.6,4.6-6.7,5.7c-2.8,1.1-18.4,1.8-22.6,1.8c-5,0-19.5-0.7-24.1-1.8c-2.8-0.7-4.6-2.1-7.1-5.7
		c-6-7.1-25.5-32.9-45.6-60.1c-20.5-28-41.7-61.6-42.8-65.5c-2.8-6-6.7-31.8-6.7-52.7c0-21.2,1.1-57.7,1.1-66.9c0-5.7,2.1-6,6-6
		c3.2,0,22.3,1.1,26.5,1.1c5.7,0,24.1,0.7,26.5,0.7c4.6,0,5,1.8,5,5.7c-1.1,17.3-2.1,38.2-2.1,51.3c0,11,1.8,34.3,2.8,45.6
		c2.1,21.2,55.5,90.6,60.1,90.6c5,0,51.7-68.3,54.5-87.7c2.1-14.9,2.1-35.7,2.1-46.7c0-10.6-3.2-44.6-3.2-51.3c-0.7-5,0-6.7,3.9-6.7
		c3.2,0,21.6-0.7,26.2-0.7c5,0,20.5-1.1,24.1-1.1c4.6-0.7,5.7,0,6.7,4.6C1187.5,1777.6,1189.6,1813.6,1189.6,1834.9z"/>
	<path class="st6" d="M1466.6,1872.7c0.7,12.4-3.9,26.2-17.3,29.4c-5.7,1.8-138,13.8-167.7,16.3c5,36.1,46.7,58.4,76.1,56.6
		c36.8-2.1,52.4-11,75.7-28c5.7-3.9,8.8-9.6,11-6.7c1.1,2.1,8.5,15.6,10.6,19.5c2.8,4.6,7.8,14.9,8.8,16.6c1.8,2.1-0.7,5.7-3.9,8.8
		c-20.2,20.2-48.8,42.1-102.3,42.1c-93.8,0-138-65.1-138-138c0-77.8,58.4-140.5,128.4-140.5
		C1405.4,1749.3,1461,1789.2,1466.6,1872.7z M1401.9,1856.1c-5-31.8-29-56.6-61.6-54.5c-35.7,2.1-54.5,32.2-59.4,61.2
		c-1.8,8.8,0.7,9.9,14.5,9.6c14.9-0.7,64.4-3.9,91.3-7.8C1396.6,1862.8,1402.9,1863.2,1401.9,1856.1z"/>
	<path class="st6" d="M1573.1,1648.1c-1.8,20.2-6,151.1-6,173.4s2.1,182.9,2.1,193.5c0,5-1.1,6-4.6,6s-18.4-1.1-26.2-1.1
		c-7.8,0-22.3,0.7-25.5,1.1c-3.9,0.7-5-0.7-5-6c0-7.1,1.1-171.2,1.1-193.5s-5-155-5.7-173.4c-0.7-6,0-7.8,5.7-7.8
		c5,0.7,18.8,1.8,29.4,1.8c9.9,0,24.4-1.8,30.1-1.8C1573.8,1640.3,1573.8,1642.8,1573.1,1648.1z"/>
	<path class="st6" d="M1962.3,2013.9c2.8,6.7-0.7,7.1-5.7,7.1c-8.8,0-22.6-1.8-30.1-1.8c-8.8,0-26.2,1.8-31.1,1.8
		c-6.7,0-7.1-4.6-9.9-12.7c-21.2-65.1-22.6-69.3-33.3-70.1c-16.6-0.7-131.3-0.7-146.1,0c-9.6,0.7-12.4,13.8-28.3,66.9
		c-4.6,14.5-5,16.3-9.6,16.3c-7.8,0-22.3-0.7-30.4-0.7c-10.6,0-23.4,0.7-30.4,0.7c-7.1,0-6-4.6-1.8-16.3
		c4.6-11.7,52.4-143.3,66.9-181.9c15.6-41,69-170.2,71.8-179s1.8-11,10.6-9.9c7.1,1.1,16.6,2.1,26.5,2.1c7.8,0,18.8-1.1,26.5-2.8
		c4.6-1.1,5.7,0.7,9.6,9.9c3.9,9.6,40,101.2,64.4,163.5C1889.8,1828.9,1959.5,2007.2,1962.3,2013.9z M1829.3,1843.4
		c-36.8-97.3-42.1-109.3-50.6-125.6c-8.8,22.6-42.8,108.3-49.5,127.4c-11.7,33.3-13.8,34,49.5,34
		C1843.4,1878.7,1843.4,1879.8,1829.3,1843.4z"/>
	<path class="st6" d="M2264.5,1890.4c0,40.7-16.3,78.5-41.8,103c-22.6,21.6-51.3,35-83.5,35s-57.3-13.8-76.8-38.9
		c-1.8-2.1-7.1-6.7-7.1,1.1c-0.7,12.7-0.7,99.4-0.7,106.9c0,6.7-1.1,8.8-6,8.8c-3.9,0-17.7-1.1-25.1-1.1c-6.7,0-16.3,0.7-24.4,0
		c-4.6,0-6-2.1-6-7.1c0-6.7,1.1-121,1.1-208.4c0-40-4.6-95.2-8.5-119.6c-0.7-4.6-1.1-7.1,2.1-8.5c4.6-1.1,24.1-1.8,30.1-2.8
		c6-1.8,26.2-4.6,30.1-5c2.8,0,4.6,1.8,4.6,3.9c1.1,11.7,2.1,24.4,2.8,34c0.7,6,1.8,5,6,0.7c20.5-23.4,44.9-38.9,76.8-38.9
		c35,0,64.4,14.9,84.6,35C2248.6,1813.6,2264.5,1855,2264.5,1890.4z M2201.1,1889.4c0-44.6-32.2-83.5-73.9-83.5
		c-38.2,0-70.1,36.1-70.1,83.9c0,44.9,29.4,83.9,72.2,83.9C2165.1,1973.9,2201.1,1938.2,2201.1,1889.4z"/>
	<path class="st6" d="M2578,1890.4c0,40.7-16.3,78.5-41.7,103c-22.6,21.6-51.3,35-83.5,35c-32.2,0-57.3-13.8-76.8-38.9
		c-1.8-2.1-7.1-6.7-7.1,1.1c-0.7,12.7-0.7,99.4-0.7,106.9c0,6.7-1.1,8.8-6,8.8c-3.9,0-17.7-1.1-25.1-1.1c-6.7,0-16.3,0.7-24.4,0
		c-4.6,0-6-2.1-6-7.1c0-6.7,1.1-121,1.1-208.4c0-40-4.6-95.2-8.5-119.6c-0.7-4.6-1.1-7.1,2.1-8.5c4.6-1.1,24.1-1.8,30.1-2.8
		c6-1.8,26.2-4.6,30.1-5c2.8,0,4.6,1.8,4.6,3.9c1.1,11.7,2.1,24.4,2.8,34c0.7,6,1.8,5,6,0.7c20.5-23.4,44.9-38.9,76.8-38.9
		c35,0,64.4,14.9,84.6,35C2562,1813.6,2578,1855,2578,1890.4z M2514.6,1889.4c0-44.6-32.2-83.5-73.9-83.5
		c-38.2,0-70.1,36.1-70.1,83.9c0,44.9,29.4,83.9,72.2,83.9C2478.5,1973.9,2514.6,1938.2,2514.6,1889.4z"/>
</g>
<g>
	<polygon class="st6" points="1482.2,696 880,1043.7 880,1043.7 1482.6,1391.9 2084.7,1044.1 2084.7,1043.7 1482.6,696 	"/>
	<polygon class="st6" points="1482.6,0 880,347.8 880,521.9 1482.6,174.1 2085.1,521.9 2085.1,347.8 	"/>
	<polygon class="st6" points="1482.2,347.8 880,695.6 880,869.7 1482.2,521.9 1482.6,522.2 2084.7,869.7 2084.7,696 1482.6,348.2 	
		"/>
</g>
</svg>
