<?xml version="1.0" encoding="utf-8"?>
<!-- Generator: Adobe Illustrator 23.0.1, SVG Export Plug-In . SVG Version: 6.00 Build 0)  -->
<svg version="1.1" id="Warstwa_1" xmlns="http://www.w3.org/2000/svg" xmlns:xlink="http://www.w3.org/1999/xlink" x="0px" y="0px"
	 viewBox="0 0 302.8 89.3" style="enable-background:new 0 0 302.8 89.3;" xml:space="preserve">
<style type="text/css">
	.st0{fill:#FFFFFF;}
</style>
<title>levelapp-logo-full</title>
<g>
	<path class="st0" d="M123.5,53.5c-0.1,0.8-0.2,1.6-0.2,2.4c0,1-0.1,2-0.2,2.3c-0.1,0.6-0.4,0.8-1.3,0.7c-1.5-0.1-8.2-0.4-10.9-0.4
		c-1.5,0-10.2,0.2-10.6,0.2c-0.4,0-0.7-0.2-0.6-0.9c0-0.7,0.4-12.4,0.4-16.4s-0.5-16.7-0.5-17.2c0-0.8,0-0.9,0.6-0.9
		c0.4,0,2.3,0.2,2.8,0.2c0.5,0,2.6-0.1,2.9-0.2c0.6,0,0.6,0.2,0.6,0.8c-0.1,0.6-0.4,12.2-0.4,15.9c0,3.6-0.1,7.8,0,12.6
		c0,0.7,0,1,0.4,1c1.7,0,5.5-0.1,8-0.1c2.8-0.1,5.6-0.3,8.4-0.7C123.5,52.7,123.6,53,123.5,53.5z"/>
	<path class="st0" d="M147.8,44.9c0.2,1.2-0.5,2.3-1.6,2.7c-0.5,0.2-12.9,1.3-15.6,1.5c0.5,3.4,4.4,5.4,7.1,5.3c2.6,0,5.1-1,7.1-2.6
		c0.5-0.4,0.8-0.9,1-0.6s0.8,1.5,1,1.8c0.2,0.4,0.7,1.5,0.8,1.6c0.1,0.1,0,0.5-0.4,0.8c-2.5,2.6-5.9,4.1-9.5,3.9
		c-8.7,0-12.9-6.1-12.9-12.9c0-7.3,5.5-13.1,12-13.1C142.2,33.4,147.3,37.1,147.8,44.9z M141.8,43.4c-0.3-3-2.8-5.2-5.8-5.1
		c-3.3,0.2-5.1,3-5.5,5.7c-0.2,0.8,0.1,0.9,1.4,0.9s6-0.4,8.5-0.7C141.3,44,141.9,44,141.8,43.4z"/>
	<path class="st0" d="M173.3,41.4c0.1,1.6,0,3.2-0.2,4.8c-1.2,2.4-2.7,4.7-4.2,6.9c-1.8,2.4-2.8,3.9-3.8,5.2
		c-0.2,0.2-0.4,0.4-0.6,0.5c-0.7,0.1-1.4,0.2-2.1,0.2c-0.8,0-1.5-0.1-2.3-0.2c-0.3-0.1-0.5-0.3-0.7-0.5c-0.6-0.7-2.4-3.1-4.3-5.6
		c-1.5-2-2.8-4-4-6.1c-0.4-1.6-0.6-3.3-0.6-4.9c0-2,0.1-5.4,0.1-6.2c0-0.5,0.2-0.6,0.6-0.6s2.1,0.1,2.5,0.1h2.5
		c0.4,0,0.5,0.2,0.5,0.5c-0.1,1.6-0.2,3.6-0.2,4.8c0,1.2,0.2,3.2,0.3,4.2c0.2,2,5.2,8.5,5.6,8.5c0.4,0,4.8-6.4,5.1-8.2
		c0.2-1.4,0.2-2.9,0.2-4.4c0-1-0.3-4.2-0.3-4.8c0-0.6,0-0.6,0.4-0.6h2.4c0.5,0,1.9-0.1,2.2-0.1s0.5,0,0.6,0.4
		C173.1,37.3,173.3,39.3,173.3,41.4z"/>
	<path class="st0" d="M199.1,44.9c0.2,1.2-0.5,2.3-1.6,2.7c-0.5,0.2-12.9,1.3-15.7,1.5c0.5,3.4,4.4,5.4,7.1,5.3
		c2.6,0,5.1-0.9,7.1-2.5c0.5-0.4,0.8-0.9,1-0.6c0.2,0.3,0.8,1.5,1,1.8c0.2,0.4,0.7,1.5,0.8,1.6s-0.1,0.5-0.4,0.8
		c-2.5,2.6-6,4.1-9.6,3.9c-8.7,0-12.9-6.1-12.9-12.9c0-7.3,5.5-13.1,12-13.1C193.4,33.4,198.6,37.1,199.1,44.9z M193.1,43.4
		c-0.3-3-2.8-5.2-5.8-5.1c-3.3,0.2-5.1,3-5.5,5.7c-0.2,0.8,0,0.9,1.4,0.9c1.4,0,6-0.4,8.5-0.7C192.6,44,193.2,44,193.1,43.4z"/>
	<path class="st0" d="M209.1,24c-0.2,1.9-0.6,14.1-0.6,16.2s0.2,17.1,0.2,18.1c0,0.5-0.1,0.6-0.4,0.6s-1.7-0.1-2.4-0.1
		s-2.1,0-2.4,0.1s-0.5-0.1-0.5-0.6s0.1-16,0.1-18.1c0-2.1-0.5-14.5-0.5-16.2c0-0.6,0-0.7,0.5-0.7s1.7,0.2,2.7,0.2
		c1,0,2.3-0.2,2.8-0.2C209.1,23.2,209.2,23.5,209.1,24z"/>
	<path class="st0" d="M245.4,58.1c0.3,0.6,0,0.7-0.5,0.7c-0.8,0-2.1-0.2-2.8-0.2c-0.7,0-2.4,0.2-2.9,0.2s-0.7-0.4-0.9-1.2
		c-2-6.1-2.1-6.5-3.1-6.5c-1.5-0.1-12.2-0.1-13.6,0c-0.9,0-1.2,1.3-2.6,6.2c-0.4,1.4-0.5,1.5-0.9,1.5c-0.7,0-2.1,0-2.9,0
		c-1,0-2.2,0-2.9,0s-0.6-0.4-0.2-1.5c0.4-1,4.9-13.4,6.2-17c1.5-3.8,6.4-15.9,6.7-16.7s0.2-1,1-0.9c0.8,0.1,1.6,0.2,2.5,0.2
		c0.8,0,1.7-0.1,2.5-0.3c0.4-0.1,0.5,0,0.9,0.9c0.4,0.9,3.7,9.4,6,15.3C238.6,40.8,245.1,57.5,245.4,58.1z M232.9,42.2
		c-3.4-9.1-3.9-10.2-4.7-11.7c-0.8,2.1-4,10.1-4.6,11.9c-1.1,3.1-1.3,3.2,4.6,3.2C234.1,45.5,234.3,45.6,232.9,42.2L232.9,42.2z"/>
	<path class="st0" d="M273.6,46.6c0,3.6-1.4,7.1-3.9,9.6c-2.1,2.1-4.9,3.2-7.8,3.3c-2.8,0-5.5-1.3-7.2-3.6c-0.2-0.2-0.7-0.6-0.7,0.1
		c-0.1,1.2-0.1,9.3-0.1,10c0,0.7-0.1,0.8-0.6,0.8c-0.5,0-1.7-0.1-2.3-0.1c-0.7,0-1.5,0-2.3,0c-0.4,0-0.6-0.2-0.6-0.7
		c0-0.5,0.1-11.3,0.1-19.4c0-3.7-0.3-7.5-0.8-11.2c0-0.4-0.1-0.7,0.2-0.8s2.2-0.2,2.8-0.3c0.9-0.2,1.9-0.4,2.8-0.5
		c0.2,0,0.4,0.1,0.4,0.3c0,0,0,0,0,0c0.1,1.1,0.2,2.3,0.2,3.2c0,0.6,0.2,0.5,0.6,0c1.7-2.2,4.4-3.6,7.2-3.6c3,0,5.8,1.2,7.9,3.3
		C272.1,39.6,273.5,43,273.6,46.6z M267.6,46.5c0-4.2-3-7.8-6.9-7.8c-3.6,0-6.5,3.4-6.5,7.8c0,4.2,2.7,7.8,6.7,7.8
		C264.3,54.4,267.6,51,267.6,46.5L267.6,46.5z"/>
	<path class="st0" d="M302.8,46.6c0,3.6-1.4,7.1-3.9,9.6c-2.1,2.1-4.9,3.2-7.8,3.3c-2.8,0-5.5-1.3-7.2-3.6c-0.2-0.2-0.7-0.6-0.7,0.1
		c0,1.2,0,9.3,0,10c0,0.7-0.1,0.8-0.6,0.8c-0.5,0-1.6-0.1-2.3-0.1c-0.7,0-1.5,0-2.3,0c-0.4,0-0.6-0.2-0.6-0.7
		c0-0.5,0.1-11.3,0.1-19.4c0-3.7-0.3-7.5-0.8-11.2c-0.1-0.4-0.1-0.7,0.2-0.8c0.3-0.1,2.3-0.2,2.8-0.3c0.9-0.2,1.9-0.4,2.8-0.5
		c0.2,0,0.4,0.1,0.4,0.3c0,0,0,0,0,0c0.1,1.1,0.2,2.3,0.3,3.2c0,0.6,0.2,0.5,0.6,0c1.7-2.2,4.3-3.6,7.2-3.6c3,0,5.8,1.2,7.9,3.3
		C301.4,39.6,302.8,43,302.8,46.6z M296.9,46.5c0-4.2-3-7.8-6.9-7.8c-3.6,0-6.5,3.4-6.5,7.8c0,4.2,2.7,7.8,6.7,7.8
		C293.5,54.4,296.9,51,296.9,46.5L296.9,46.5z"/>
</g>
<g>
	<polygon class="st0" points="38.6,44.7 0,66.9 0,66.9 38.6,89.3 77.3,67 77.3,66.9 38.6,44.7 	"/>
	<polygon class="st0" points="38.6,0 0,22.3 0,33.5 38.6,11.2 77.3,33.5 77.3,22.3 	"/>
	<polygon class="st0" points="38.6,22.3 0,44.6 0,55.8 38.6,33.5 38.6,33.5 77.3,55.8 77.3,44.7 38.6,22.3 	"/>
</g>
</svg>
