<svg id="Warstwa_3" data-name="Warstwa 3" xmlns="http://www.w3.org/2000/svg" viewBox="0 0 595.27 595.28"><defs><style>.cls-1{fill:#1fb24b;}.cls-2{fill:#fff;}</style></defs><title>safari-pinned-tab</title><path class="cls-1" d="M563,0H32.26A32.36,32.36,0,0,0,0,32.27V563a32.36,32.36,0,0,0,32.26,32.27H563A32.36,32.36,0,0,0,595.27,563V32.27A32.36,32.36,0,0,0,563,0ZM472.5,398.7l-174.85,101-175-101v-.05l174.88-101,.11.06,174.85,101Zm0-50.55-174.85-101-.11,0-174.88,101V297.57l174.88-101,.11,0,174.85,101Zm.11-101-175-101-175,101V196.61l175-101,175,101Z"/><polygon class="cls-2" points="472.61 196.61 472.61 247.13 297.65 146.11 122.66 247.13 122.66 196.61 297.65 95.59 472.61 196.61"/><polygon class="cls-2" points="472.5 297.62 472.5 348.15 297.65 247.16 297.54 247.13 122.66 348.09 122.66 297.57 297.54 196.61 297.65 196.66 472.5 297.62"/><polygon class="cls-2" points="472.5 398.64 472.5 398.7 297.65 499.66 122.66 398.64 122.66 398.59 297.54 297.62 297.65 297.68 472.5 398.64"/></svg>